# xmcd CD database file
#
# Track frame offsets:
#	150
#	15020
#	29232
#	47380
#	61722
#	76732
#	96857
#	118392
#	132800
#	151662
#	164760
#	179865
#
# Disc length: 2711 seconds
#
# Revision: 0
# Processed by: cddbd v1.5PL3 Copyright (c) Steve Scherf et al.
# Submitted via: CDex 1.51
#
DISCID=930a950c
DTITLE=Neve - Identify Yourself
DYEAR=1999
DGENRE=Rock
TTITLE0=Digital On
TTITLE1=Same Old Story
TTITLE2=It's Over Now
TTITLE3=Motor
TTITLE4=Freeform
TTITLE5=Absent
TTITLE6=Trip And Glide
TTITLE7=Step Up
TTITLE8=3 Years
TTITLE9=Wake Up Call
TTITLE10=Skyfall
TTITLE11=Drift
EXTD=YEAR: 1999
EXTT0=
EXTT1=
EXTT2=
EXTT3=
EXTT4=
EXTT5=
EXTT6=
EXTT7=
EXTT8=
EXTT9=
EXTT10=
EXTT11=
PLAYORDER=
